<?xml version="1.0" encoding="utf-8"?>
<svg id="master-artboard" viewBox="0 0 559.52001953125 90.56002807617188" version="1.1" xmlns="http://www.w3.org/2000/svg" x="0px" y="0px" style="enable-background:new 0 0 1400 980;" width="559.52001953125px" height="90.56002807617188px" xmlns:xlink="http://www.w3.org/1999/xlink"><rect id="ee-background" x="0" y="0" width="559.52001953125" height="90.56002807617188" style="fill: white; fill-opacity: 1; pointer-events: none;"/><defs><style id="ee-google-fonts">@import url(https://fonts.googleapis.com/css?family=Roboto:100,100italic,300,300italic,400,400italic,500,500italic,700,700italic,900,900italic);</style></defs>























































































































<g transform="matrix(1.2760417461395264, 0, 0, 1.2760417461395264, -374.3892936706543, -445.5360107421875)"><metadata id="metadata74998" fill="#FFFFFF">
    
  </metadata><linearGradient spreadMethod="pad" y2="30%" x2="-10%" y1="120%" x1="30%" id="3d_gradient2-logo-7cc39383-786c-400c-9eeb-14fc6bd7a680" fill="#FFFFFF">
    <stop id="stop74973" stop-opacity="1" stop-color="#ffffff" offset="0%" fill="#FFFFFF"/>
    <stop id="stop74975" stop-opacity="1" stop-color="#000000" offset="100%" fill="#FFFFFF"/>
  </linearGradient><linearGradient gradientTransform="rotate(-30)" spreadMethod="pad" y2="30%" x2="-10%" y1="120%" x1="30%" id="3d_gradient3-logo-7cc39383-786c-400c-9eeb-14fc6bd7a680" fill="#FFFFFF">
    <stop id="stop74978" stop-opacity="1" stop-color="#ffffff" offset="0%" fill="#FFFFFF"/>
    <stop id="stop74980" stop-opacity="1" stop-color="#cccccc" offset="50%" fill="#FFFFFF"/>
    <stop id="stop74982" stop-opacity="1" stop-color="#000000" offset="100%" fill="#FFFFFF"/>
  </linearGradient><g id="logo-group" fill="#FFFFFF">
    <image id="container" x="272" y="144" width="480" height="480" style="display: none;" transform="translate(0 0)" fill="#FFFFFF" xlink:href=""/>
    <g id="logo-center" transform="translate(5.684341886080802e-14 0)" fill="#FFFFFF">
      <image id="icon_container" x="0" y="0" style="display: none;" fill="#FFFFFF" xlink:href=""/>
      <g id="slogan" style="font-style:normal;font-weight:400;font-size:32px;line-height:1;font-family:'Roboto Condensed';font-variant-ligatures:none;text-align:center;text-anchor:middle" transform="translate(0 0)" fill="#FFFFFF"/>
      <g id="title" style="font-style:normal;font-weight:normal;font-size:72px;line-height:1;font-family:'Brandmark Sans 9 Outline';font-variant-ligatures:normal;text-align:center;text-anchor:middle" transform="translate(0 0)" fill="#FFFFFF">
        <path id="path75001" style="font-style:normal;font-weight:normal;font-size:72px;line-height:1;font-family:'Brandmark Sans 9 Outline';font-variant-ligatures:normal;text-align:center;text-anchor:middle" d="m 379.196,-7.992 c -1.656,2.376 -4.176,4.248 -7.488,5.688 -3.312,1.44 -7.488,2.16 -12.384,2.16 -4.032,0 -7.992,-0.432 -11.88,-1.368 -3.456,-0.864 -6.336,-1.872 -8.496,-3.168 l 4.536,-10.224 c 2.088,1.152 4.464,2.16 7.128,2.88 3.096,0.864 6.048,1.296 8.856,1.296 2.592,0 4.392,-0.288 5.544,-0.792 1.44,-0.648 2.232,-1.728 2.232,-3.168 0,-1.584 -0.936,-2.736 -2.736,-3.528 -1.368,-0.504 -3.6,-1.08 -6.768,-1.728 -3.888,-0.864 -7.056,-1.728 -9.504,-2.592 -2.448,-0.864 -4.536,-2.304 -6.336,-4.32 -1.728,-1.872 -2.592,-4.536 -2.592,-7.848 0,-2.88 0.864,-5.544 2.448,-7.992 1.656,-2.376 4.104,-4.248 7.488,-5.688 3.312,-1.44 7.488,-2.16 12.384,-2.16 3.24,0 6.552,0.36 9.936,1.08 2.664,0.648 5.184,1.512 7.488,2.664 l -4.104,10.224 c -4.68,-2.232 -9.144,-3.312 -13.464,-3.312 -5.184,0 -7.776,1.44 -7.776,4.392 0,1.512 0.936,2.664 2.736,3.384 1.512,0.576 3.672,1.152 6.624,1.656 3.744,0.792 6.984,1.584 9.504,2.448 2.52,0.936 4.608,2.304 6.408,4.32 1.728,1.872 2.592,4.464 2.592,7.776 0,2.88 -0.792,5.544 -2.376,7.92 z m -24.192,-27.432 c 0,-0.072 0,-0.072 0,-0.072 0,-2.16 2.16,-3.168 6.552,-3.168 4.392,0 9.072,1.224 14.04,3.744 l 5.04,-12.24 c -2.52,-1.44 -5.472,-2.52 -8.784,-3.24 -3.312,-0.72 -6.696,-1.152 -10.152,-1.152 -5.04,0 -9.36,0.792 -12.888,2.232 -3.528,1.512 -6.192,3.528 -7.92,6.12 -1.8,2.592 -2.664,5.472 -2.664,8.64 0,1.656 0.144,3.168 0.576,4.536 0.432,1.584 1.224,2.952 2.232,4.104 1.872,2.088 4.104,3.672 6.768,4.608 2.52,0.936 5.76,1.8 9.792,2.664 2.952,0.576 5.112,1.152 6.48,1.728 1.296,0.504 2.016,1.296 2.016,2.376 0,0 0,0 0,0 0,0 0,0 0,0 0,0.936 -0.504,1.656 -1.512,2.088 -1.008,0.432 -2.736,0.648 -5.04,0.648 -2.736,0 -5.616,-0.36 -8.568,-1.224 -3.024,-0.864 -5.688,-1.944 -8.064,-3.384 l -5.472,12.384 c 2.448,1.584 5.688,2.808 9.72,3.816 4.032,0.936 8.136,1.368 12.168,1.368 4.968,0 9.288,-0.72 12.888,-2.232 3.528,-1.512 6.192,-3.528 7.992,-6.192 1.728,-2.52 2.592,-5.328 2.592,-8.568 0,-1.368 -0.144,-2.592 -0.36,-3.744 -0.504,-1.944 -1.296,-3.528 -2.52,-4.896 -1.944,-2.088 -4.248,-3.6 -6.84,-4.536 -2.664,-0.936 -5.904,-1.8 -9.72,-2.52 -3.024,-0.576 -5.112,-1.08 -6.408,-1.584 -1.296,-0.504 -1.944,-1.296 -1.944,-2.304 0,0 0,0 0,0 z" stroke-width="0px" stroke-linejoin="miter" stroke-miterlimit="2" fill="#53BBD8" stroke="#53BBD8" transform="translate(0 310.924) translate(295.03957625 43.29824000000001) scale(1.13) translate(-337.436 51.552)"/>
        <path id="path75003" style="font-style:normal;font-weight:normal;font-size:72px;line-height:1;font-family:'Brandmark Sans 9 Outline';font-variant-ligatures:normal;text-align:center;text-anchor:middle" d="m 428.606,-1.152 h -39.528 v -48.024 h 38.592 v 10.44 h -24.264 v 8.28 h 21.312 v 9.864 h -21.312 v 9 h 25.2 v 10.44 z m -24.048,-11.664 v 0 -6.624 h 21.312 v -12.168 h -21.312 v -0.072 0 -5.904 h 24.264 V -50.328 H 387.854 V 0 h 41.904 v -12.744 h -25.2 z" stroke-width="0px" stroke-linejoin="miter" stroke-miterlimit="2" fill="#60C2DC" stroke="#60C2DC" transform="translate(0 310.924) translate(358.79191625 44.681360000000005) scale(1.13) translate(-387.854 50.328)"/>
        <path id="path75005" style="font-style:normal;font-weight:normal;font-size:72px;line-height:1;font-family:'Brandmark Sans 9 Outline';font-variant-ligatures:normal;text-align:center;text-anchor:middle" d="m 483.81763,-22.68 c 0,7.2 -2.01601,12.744 -6.12,16.704 -4.03201,3.96 -9.79201,5.904 -17.20801,5.904 -7.344,0 -13.104,-1.944 -17.20799,-5.904 -4.10401,-3.888 -6.12,-9.432 -6.12,-16.704 v -26.496 h 14.61599 v 26.064 c 0,4.032 0.72001,6.912 2.23201,8.784 1.51199,1.944 3.74399,2.952 6.69599,2.952 2.88,0 5.11201,-1.008 6.62401,-2.952 1.512,-1.944 2.30399,-4.896 2.30399,-8.784 v -26.064 h 14.25601 v 26.496 z m -15.48001,-0.504 v 0.072 c 0,3.672 -0.72,6.336 -2.016,8.064 -1.368,1.656 -3.24,2.52 -5.688,2.52 -2.37599,0 -4.176,-0.72 -5.39999,-2.16 -0.14401,-0.144 -0.21601,-0.288 -0.36001,-0.432 -1.296,-1.656 -1.944,-4.32 -1.944,-8.064 v -27.144 h -16.99199 v 27.72 c 0,7.416 2.08799,13.176 6.19199,17.352 0.072,0.072 0.144,0.144 0.288,0.144 4.32,4.176 10.296,6.264 18.072,6.264 7.704,0 13.752,-2.088 18.072,-6.264 4.32,-4.176 6.48,-10.008 6.48,-17.568 v -27.648 h -16.704 z" stroke-width="0px" stroke-linejoin="miter" stroke-miterlimit="2" fill="#6DC8E0" stroke="#6DC8E0" transform="translate(0 310.924) translate(419.90641815000004 44.681360000000005) scale(1.13) translate(-435.93763 50.328)"/>
        <path id="path75007" style="font-style:normal;font-weight:normal;font-size:72px;line-height:1;font-family:'Brandmark Sans 9 Outline';font-variant-ligatures:normal;text-align:center;text-anchor:middle" d="m 520.9685,-0.216 c 3.96,0.936 8.064,1.368 12.24,1.368 5.04,0 9.288,-0.72 12.816,-2.232 3.528,-1.512 6.192,-3.528 7.992,-6.12 1.728,-2.592 2.664,-5.472 2.664,-8.64 0,-3.6 -1.008,-6.48 -2.952,-8.64 -1.944,-2.088 -4.248,-3.6 -6.84,-4.536 -2.664,-0.936 -5.904,-1.8 -9.72,-2.52 -3.024,-0.576 -5.112,-1.08 -6.408,-1.584 -1.296,-0.504 -1.944,-1.296 -1.944,-2.304 0,-2.088 2.16,-3.168 6.552,-3.168 4.392,0 9.072,1.296 14.04,3.744 l 5.112,-12.312 c -2.592,-1.44 -5.544,-2.52 -8.856,-3.24 -3.312,-0.72 -6.696,-1.152 -10.152,-1.152 -5.04,0 -9.36,0.792 -12.888,2.232 -3.528,1.512 -6.192,3.528 -7.92,6.12 -1.8,2.592 -2.664,5.472 -2.664,8.64 0,3.672 0.936,6.552 2.88,8.712 1.872,2.16 4.176,3.672 6.768,4.608 2.592,0.936 5.832,1.8 9.72,2.592 3.024,0.648 5.184,1.224 6.48,1.728 1.296,0.576 2.016,1.368 2.016,2.376 0,0.936 -0.504,1.656 -1.512,2.088 -1.008,0.432 -2.736,0.648 -5.04,0.648 -2.736,0 -5.616,-0.36 -8.568,-1.224 -3.024,-0.864 -5.688,-1.944 -8.064,-3.384 l -5.472,12.384 c 2.52,1.584 5.76,2.88 9.72,3.816 z" stroke-width="0px" stroke-linejoin="miter" stroke-miterlimit="2" fill="#7ACFE4" stroke="#7ACFE4" transform="translate(0 310.924) translate(511.78770124999994 43.29824000000001) scale(1.13) translate(-511.2485 51.552)"/>
        <path id="path75009" style="font-style:normal;font-weight:normal;font-size:72px;line-height:1;font-family:'Brandmark Sans 9 Outline';font-variant-ligatures:normal;text-align:center;text-anchor:middle" d="M 561.6665,-50.4 V 0 h 16.992 v -50.4 z" stroke-width="0px" stroke-linejoin="miter" stroke-miterlimit="2" fill="#86D5E8" stroke="#86D5E8" transform="translate(0 310.924) translate(575.5400412500001 44.60000000000001) scale(1.13) translate(-561.6665 50.4)"/>
        <path id="path75011" style="font-style:normal;font-weight:normal;font-size:72px;line-height:1;font-family:'Brandmark Sans 9 Outline';font-variant-ligatures:normal;text-align:center;text-anchor:middle" d="M 586.83838,-50.4 V 0 h 39.74399 v -13.176 h -22.752 V -50.4 Z" stroke-width="0px" stroke-linejoin="miter" stroke-miterlimit="2" fill="#93DCEC" stroke="#93DCEC" transform="translate(0 310.924) translate(610.7642656500001 44.60000000000001) scale(1.13) translate(-586.83838 50.4)"/>
        <path id="path75013" style="font-style:normal;font-weight:normal;font-size:72px;line-height:1;font-family:'Brandmark Sans 9 Outline';font-variant-ligatures:normal;text-align:center;text-anchor:middle" d="m 642.38075,-2.232 c 4.32,2.304 9.144,3.384 14.616,3.384 5.4,0 10.296,-1.08 14.616,-3.384 4.32,-2.232 7.704,-5.328 10.152,-9.36 2.448,-4.032 3.672,-8.568 3.672,-13.608 0,-5.04 -1.224,-9.504 -3.672,-13.536 -2.448,-4.032 -5.832,-7.128 -10.152,-9.432 -4.32,-2.232 -9.216,-3.384 -14.616,-3.384 -5.472,0 -10.296,1.152 -14.616,3.384 -4.32,2.304 -7.704,5.4 -10.152,9.432 -2.448,4.032 -3.672,8.496 -3.672,13.536 0,5.04 1.224,9.576 3.672,13.608 2.448,4.032 5.832,7.128 10.152,9.36 z m 20.304,-11.88 c -1.728,1.008 -3.6,1.512 -5.688,1.512 -2.16,0 -4.032,-0.504 -5.76,-1.512 -1.728,-1.008 -3.024,-2.52 -4.032,-4.392 -1.008,-1.872 -1.512,-4.104 -1.512,-6.696 0,-2.52 0.504,-4.752 1.512,-6.624 1.008,-1.872 2.304,-3.384 4.032,-4.392 1.728,-1.008 3.6,-1.584 5.76,-1.584 2.088,0 3.96,0.576 5.688,1.584 1.728,1.008 3.096,2.52 4.104,4.392 1.008,1.872 1.512,4.104 1.512,6.624 0,2.592 -0.504,4.824 -1.512,6.696 -1.008,1.872 -2.376,3.384 -4.104,4.392 z" stroke-width="0px" stroke-linejoin="miter" stroke-miterlimit="2" fill="#A0E2F0" stroke="#A0E2F0" transform="translate(0 310.924) translate(664.6860237499999 43.29824000000001) scale(1.13) translate(-628.55675 51.552)"/>
      </g>
      <image id="icon" x="0" y="0" style="display: none;" fill="#FFFFFF" xlink:href=""/>
    </g>
  </g></g></svg>