<svg version="1.0" xmlns="http://www.w3.org/2000/svg" width="300.000000pt" height="300.000000pt" viewBox="0 0 300.000000 300.000000" preserveAspectRatio="xMidYMid meet">
    <g transform="translate(0.000000,300.000000) scale(0.100000,-0.100000)" fill="#2647ab" stroke="none">
      <path d="M105 2981 c-48 -22 -69 -44 -90 -94 -13 -32 -15 -194 -15 -1387 0 -1193 2 -1355 15 -1387 21 -50 42 -72 90 -94 38 -17 83 -19 768 -19 l727 0 0 580 0 580 -195 0 -195 0 2 228 3 227 192 0 191 0 5 235 c3 177 8 250 21 295 56 204 197 342 397 390 68 16 302 20 442 9 l77 -7 0 -207 0 -208 -167 -4 c-183 -5 -223 -14 -261 -62 -31 -41 -42 -111 -42 -281 l0 -155 220 0 c172 0 222 -3 226 -13 2 -7 -8 -109 -24 -227 l-28 -215 -197 -3 -197 -2 0 -580 0 -580 393 0 c359 0 395 2 432 19 48 22 69 44 90 94 13 32 15 194 15 1389 0 1291 -1 1355 -19 1393 -22 48 -44 69 -94 90 -32 13 -194 15 -1389 15 -1291 0 -1355 -1 -1393 -19z" />
    </g>
  </svg>