<svg width="375" height="72" viewBox="0 0 375 72" fill="none" xmlns="http://www.w3.org/2000/svg">
<rect width="375" height="72" fill="#F8F8F8"/>
<rect y="71" width="375" height="1" fill="#E4E4E4"/>
<path d="M330 36H348" stroke="#23A6F0" stroke-width="2" stroke-linecap="round" stroke-linejoin="round"/>
<path d="M330 30H348" stroke="#23A6F0" stroke-width="2" stroke-linecap="round" stroke-linejoin="round"/>
<path d="M330 42H348" stroke="#23A6F0" stroke-width="2" stroke-linecap="round" stroke-linejoin="round"/>
<path d="M25.743 41V26.3H29.145V38.228H36.516V41H25.743ZM43.5003 41.168C42.2963 41.168 41.2253 40.916 40.2873 40.412C39.3633 39.908 38.6283 39.222 38.0823 38.354C37.5503 37.472 37.2843 36.471 37.2843 35.351C37.2843 34.217 37.5503 33.216 38.0823 32.348C38.6283 31.466 39.3633 30.78 40.2873 30.29C41.2253 29.786 42.2963 29.534 43.5003 29.534C44.6903 29.534 45.7543 29.786 46.6923 30.29C47.6303 30.78 48.3653 31.459 48.8973 32.327C49.4293 33.195 49.6953 34.203 49.6953 35.351C49.6953 36.471 49.4293 37.472 48.8973 38.354C48.3653 39.222 47.6303 39.908 46.6923 40.412C45.7543 40.916 44.6903 41.168 43.5003 41.168ZM43.5003 38.48C44.0463 38.48 44.5363 38.354 44.9703 38.102C45.4043 37.85 45.7473 37.493 45.9993 37.031C46.2513 36.555 46.3773 35.995 46.3773 35.351C46.3773 34.693 46.2513 34.133 45.9993 33.671C45.7473 33.209 45.4043 32.852 44.9703 32.6C44.5363 32.348 44.0463 32.222 43.5003 32.222C42.9543 32.222 42.4643 32.348 42.0303 32.6C41.5963 32.852 41.2463 33.209 40.9803 33.671C40.7283 34.133 40.6023 34.693 40.6023 35.351C40.6023 35.995 40.7283 36.555 40.9803 37.031C41.2463 37.493 41.5963 37.85 42.0303 38.102C42.4643 38.354 42.9543 38.48 43.5003 38.48ZM57.198 45.242C56.134 45.242 55.105 45.109 54.111 44.843C53.131 44.591 52.312 44.206 51.654 43.688L52.956 41.336C53.432 41.728 54.034 42.036 54.762 42.26C55.504 42.498 56.232 42.617 56.946 42.617C58.108 42.617 58.948 42.358 59.466 41.84C59.998 41.322 60.264 40.552 60.264 39.53V37.829L60.474 34.994L60.432 32.138V29.702H63.54V39.11C63.54 41.21 62.994 42.757 61.902 43.751C60.81 44.745 59.242 45.242 57.198 45.242ZM56.694 40.454C55.644 40.454 54.692 40.23 53.838 39.782C52.998 39.32 52.319 38.683 51.801 37.871C51.297 37.045 51.045 36.086 51.045 34.994C51.045 33.888 51.297 32.929 51.801 32.117C52.319 31.291 52.998 30.654 53.838 30.206C54.692 29.758 55.644 29.534 56.694 29.534C57.646 29.534 58.486 29.73 59.214 30.122C59.942 30.5 60.509 31.095 60.915 31.907C61.321 32.705 61.524 33.734 61.524 34.994C61.524 36.24 61.321 37.269 60.915 38.081C60.509 38.879 59.942 39.474 59.214 39.866C58.486 40.258 57.646 40.454 56.694 40.454ZM57.345 37.766C57.919 37.766 58.43 37.654 58.878 37.43C59.326 37.192 59.676 36.863 59.928 36.443C60.18 36.023 60.306 35.54 60.306 34.994C60.306 34.434 60.18 33.951 59.928 33.545C59.676 33.125 59.326 32.803 58.878 32.579C58.43 32.341 57.919 32.222 57.345 32.222C56.771 32.222 56.26 32.341 55.812 32.579C55.364 32.803 55.007 33.125 54.741 33.545C54.489 33.951 54.363 34.434 54.363 34.994C54.363 35.54 54.489 36.023 54.741 36.443C55.007 36.863 55.364 37.192 55.812 37.43C56.26 37.654 56.771 37.766 57.345 37.766ZM71.9651 41.168C70.7611 41.168 69.6901 40.916 68.7521 40.412C67.8281 39.908 67.0931 39.222 66.5471 38.354C66.0151 37.472 65.7491 36.471 65.7491 35.351C65.7491 34.217 66.0151 33.216 66.5471 32.348C67.0931 31.466 67.8281 30.78 68.7521 30.29C69.6901 29.786 70.7611 29.534 71.9651 29.534C73.1551 29.534 74.2191 29.786 75.1571 30.29C76.0951 30.78 76.8301 31.459 77.3621 32.327C77.8941 33.195 78.1601 34.203 78.1601 35.351C78.1601 36.471 77.8941 37.472 77.3621 38.354C76.8301 39.222 76.0951 39.908 75.1571 40.412C74.2191 40.916 73.1551 41.168 71.9651 41.168ZM71.9651 38.48C72.5111 38.48 73.0011 38.354 73.4351 38.102C73.8691 37.85 74.2121 37.493 74.4641 37.031C74.7161 36.555 74.8421 35.995 74.8421 35.351C74.8421 34.693 74.7161 34.133 74.4641 33.671C74.2121 33.209 73.8691 32.852 73.4351 32.6C73.0011 32.348 72.5111 32.222 71.9651 32.222C71.4191 32.222 70.9291 32.348 70.4951 32.6C70.0611 32.852 69.7111 33.209 69.4451 33.671C69.1931 34.133 69.0671 34.693 69.0671 35.351C69.0671 35.995 69.1931 36.555 69.4451 37.031C69.7111 37.493 70.0611 37.85 70.4951 38.102C70.9291 38.354 71.4191 38.48 71.9651 38.48ZM80.5809 41V26.3H83.3949L89.6529 36.674H88.1619L94.3149 26.3H97.1079L97.1499 41H93.9579L93.9369 31.193H94.5249L89.6109 39.446H88.0779L83.0589 31.193H83.7729V41H80.5809ZM107.337 41V38.795L107.127 38.312V34.364C107.127 33.664 106.91 33.118 106.476 32.726C106.056 32.334 105.405 32.138 104.523 32.138C103.921 32.138 103.326 32.236 102.738 32.432C102.164 32.614 101.674 32.866 101.268 33.188L100.092 30.899C100.708 30.465 101.45 30.129 102.318 29.891C103.186 29.653 104.068 29.534 104.964 29.534C106.686 29.534 108.023 29.94 108.975 30.752C109.927 31.564 110.403 32.831 110.403 34.553V41H107.337ZM103.893 41.168C103.011 41.168 102.255 41.021 101.625 40.727C100.995 40.419 100.512 40.006 100.176 39.488C99.8395 38.97 99.6715 38.389 99.6715 37.745C99.6715 37.073 99.8325 36.485 100.155 35.981C100.491 35.477 101.016 35.085 101.73 34.805C102.444 34.511 103.375 34.364 104.523 34.364H107.526V36.275H104.88C104.11 36.275 103.578 36.401 103.284 36.653C103.004 36.905 102.864 37.22 102.864 37.598C102.864 38.018 103.025 38.354 103.347 38.606C103.683 38.844 104.138 38.963 104.712 38.963C105.258 38.963 105.748 38.837 106.182 38.585C106.616 38.319 106.931 37.934 107.127 37.43L107.631 38.942C107.393 39.67 106.959 40.223 106.329 40.601C105.699 40.979 104.887 41.168 103.893 41.168ZM113.367 41V29.702H116.496V32.894L116.055 31.97C116.391 31.172 116.93 30.57 117.672 30.164C118.414 29.744 119.317 29.534 120.381 29.534V32.558C120.241 32.544 120.115 32.537 120.003 32.537C119.891 32.523 119.772 32.516 119.646 32.516C118.75 32.516 118.022 32.775 117.462 33.293C116.916 33.797 116.643 34.588 116.643 35.666V41H113.367ZM127.707 41.168C126.489 41.168 125.404 40.923 124.452 40.433C123.5 39.929 122.751 39.236 122.205 38.354C121.673 37.472 121.407 36.471 121.407 35.351C121.407 34.217 121.673 33.216 122.205 32.348C122.751 31.466 123.5 30.78 124.452 30.29C125.404 29.786 126.489 29.534 127.707 29.534C128.897 29.534 129.933 29.786 130.815 30.29C131.697 30.78 132.348 31.487 132.768 32.411L130.227 33.776C129.933 33.244 129.562 32.852 129.114 32.6C128.68 32.348 128.204 32.222 127.686 32.222C127.126 32.222 126.622 32.348 126.174 32.6C125.726 32.852 125.369 33.209 125.103 33.671C124.851 34.133 124.725 34.693 124.725 35.351C124.725 36.009 124.851 36.569 125.103 37.031C125.369 37.493 125.726 37.85 126.174 38.102C126.622 38.354 127.126 38.48 127.686 38.48C128.204 38.48 128.68 38.361 129.114 38.123C129.562 37.871 129.933 37.472 130.227 36.926L132.768 38.312C132.348 39.222 131.697 39.929 130.815 40.433C129.933 40.923 128.897 41.168 127.707 41.168ZM141.585 41V38.795L141.375 38.312V34.364C141.375 33.664 141.158 33.118 140.724 32.726C140.304 32.334 139.653 32.138 138.771 32.138C138.169 32.138 137.574 32.236 136.986 32.432C136.412 32.614 135.922 32.866 135.516 33.188L134.34 30.899C134.956 30.465 135.698 30.129 136.566 29.891C137.434 29.653 138.316 29.534 139.212 29.534C140.934 29.534 142.271 29.94 143.223 30.752C144.175 31.564 144.651 32.831 144.651 34.553V41H141.585ZM138.141 41.168C137.259 41.168 136.503 41.021 135.873 40.727C135.243 40.419 134.76 40.006 134.424 39.488C134.088 38.97 133.92 38.389 133.92 37.745C133.92 37.073 134.081 36.485 134.403 35.981C134.739 35.477 135.264 35.085 135.978 34.805C136.692 34.511 137.623 34.364 138.771 34.364H141.774V36.275H139.128C138.358 36.275 137.826 36.401 137.532 36.653C137.252 36.905 137.112 37.22 137.112 37.598C137.112 38.018 137.273 38.354 137.595 38.606C137.931 38.844 138.386 38.963 138.96 38.963C139.506 38.963 139.996 38.837 140.43 38.585C140.864 38.319 141.179 37.934 141.375 37.43L141.879 38.942C141.641 39.67 141.207 40.223 140.577 40.601C139.947 40.979 139.135 41.168 138.141 41.168Z" fill="#252B42"/>
</svg>
