<?xml version="1.0" standalone="no"?>
<!DOCTYPE svg PUBLIC "-//W3C//DTD SVG 20010904//EN" "http://www.w3.org/TR/2001/REC-SVG-20010904/DTD/svg10.dtd">
<svg version="1.0" xmlns="http://www.w3.org/2000/svg" width="300.000000pt" height="300.000000pt" viewBox="0 0 300.000000 300.000000" preserveAspectRatio="xMidYMid meet">
  <metadata>
    Created by potrace 1.10, written by Peter Selinger 2001-2011
  </metadata>
  <g transform="translate(0.000000,300.000000) scale(0.100000,-0.100000)" fill="#000000" stroke="none">
    <path d="M1320 2990 c-350 -48 -652 -200 -893 -449 -451 -467 -554 -1149 -261
-1723 210 -409 574 -688 1032 -790 82 -19 130 -22 302 -23 179 0 218 3 309 23
300 67 537 197 751 412 174 174 291 360 365 584 60 180 70 248 70 476 0 178
-3 219 -23 309 -135 600 -593 1048 -1192 1166 -99 19 -364 28 -460 15z m55
-970 l218 -291 29 28 c15 15 137 145 271 290 l242 263 78 0 79 0 -188 -202
c-104 -112 -244 -263 -312 -335 -79 -84 -122 -138 -119 -147 3 -8 161 -222
351 -475 191 -254 346 -463 346 -466 0 -3 -116 -5 -257 -5 l-258 1 -240 321
-240 321 -70 -76 c-38 -42 -171 -187 -295 -321 l-225 -245 -73 0 c-41 -1 -72
3 -70 8 2 5 131 148 288 317 157 169 306 331 332 359 l46 51 -315 419 c-173
231 -324 432 -335 448 l-19 27 259 0 260 0 217 -290z" />
    <path d="M870 2194 c0 -4 233 -318 517 -698 284 -380 518 -692 519 -694 1 -1
54 -1 119 0 l118 3 -521 695 -520 695 -116 3 c-64 1 -116 0 -116 -4z" />
  </g>
</svg>